<?xml version="1.0" encoding="UTF-8"?>
<svg version="1.1" xmlns="http://www.w3.org/2000/svg" width="225" height="225">
<path d="M0 0 C74.25 0 148.5 0 225 0 C225 74.25 225 148.5 225 225 C150.75 225 76.5 225 0 225 C0 150.75 0 76.5 0 0 Z " fill="#FDFDFD" transform="translate(0,0)"/>
<path d="M0 0 C15.17163896 12.54117966 25.68851424 26.15953143 32.23046875 44.84375 C32.55015625 45.75382812 32.86984375 46.66390625 33.19921875 47.6015625 C39.3464147 68.94599289 35.90571405 92.93414223 25.35546875 112.1953125 C13.16210783 133.50055998 -5.14564288 146.85186578 -28.05859375 155.015625 C-51.5870618 161.20425431 -75.94164767 156.63841666 -96.76953125 144.84375 C-116.92060983 132.33886464 -130.01511359 112.67527426 -136.078125 90.02734375 C-141.29181815 66.02079053 -136.69412528 43.66297671 -124.01171875 22.9765625 C-109.87998171 1.87755046 -89.55440937 -10.6479905 -64.95703125 -15.73828125 C-42.10914937 -18.73426576 -18.56826064 -14.06202183 0 0 Z " fill="#6A0F15" transform="translate(163.76953125,26.15625)"/>
<path d="M0 0 C3.17303812 3.17303812 5.63401432 5.68876512 8.1875 9.1875 C15.04668993 18.28411536 15.04668993 18.28411536 24 25 C23.88398437 25.6290625 23.76796875 26.258125 23.6484375 26.90625 C23.33893809 29.84207296 23.35023535 32.11123743 24 35 C26.80879022 38.43503264 30.28627136 40.62051628 34 43 C34.94230469 43.65742188 35.88460937 44.31484375 36.85546875 44.9921875 C59.9925071 60.37697109 89.04158216 66.82847781 116.4362793 61.86621094 C135.16950138 57.99369036 153.57773686 51.15674511 168.14453125 38.46875 C170 37 170 37 172 37 C171.82339844 36.43152344 171.64679688 35.86304688 171.46484375 35.27734375 C170.87241793 32.64872845 170.62180099 30.67747706 171 28 C172.94380526 25.84072576 175.04598691 24.42688926 177.453125 22.8046875 C184.53949771 17.78336205 189.45753152 10.27827336 194 3 C196 5 196 5 196.1953125 8.0390625 C196.17210937 9.22242188 196.14890625 10.40578125 196.125 11.625 C196.10695312 12.81351563 196.08890625 14.00203125 196.0703125 15.2265625 C196.04710937 16.14179688 196.02390625 17.05703125 196 18 C199.63 18.33 203.26 18.66 207 19 C204.28807947 24.68211921 204.28807947 24.68211921 202.1875 27 C201.795625 27.66 201.40375 28.32 201 29 C201.59882476 31.02134939 202.26211971 33.02516403 203 35 C200.50649333 37.69358609 198.00401126 40.37867942 195.5 43.0625 C194.80390625 43.81466797 194.1078125 44.56683594 193.390625 45.34179688 C171.80037636 68.43136834 143.36999328 84.44166972 111.36425781 86.19970703 C87.99719233 86.90681372 65.18335731 85.80901816 44 75 C42.29263672 74.17048828 42.29263672 74.17048828 40.55078125 73.32421875 C22.79769325 64.48644721 5.44287887 51.31818994 -6 35 C-5.649375 34.4225 -5.29875 33.845 -4.9375 33.25 C-3.80727048 30.53744915 -3.92081303 29.69538564 -5 27 C-5.96981055 25.4257369 -6.9947211 23.8845314 -8.0625 22.375 C-11 18.21411765 -11 18.21411765 -11 16 C-6.545 15.505 -6.545 15.505 -2 15 C-1.34 10.05 -0.68 5.1 0 0 Z " fill="#690E14" transform="translate(14,126)"/>
<path d="M0 0 C1.26263672 0.69222656 1.26263672 0.69222656 2.55078125 1.3984375 C3.60910156 1.92179687 4.66742188 2.44515625 5.7578125 2.984375 C6.62575439 3.41810425 6.62575439 3.41810425 7.51123047 3.8605957 C16.00069925 8.04489886 24.30307056 10.41946493 33.55078125 12.3984375 C35.20991963 12.7656453 36.86877223 13.13414656 38.52734375 13.50390625 C39.29385254 13.6743042 40.06036133 13.84470215 40.85009766 14.02026367 C41.41132324 14.14506104 41.97254883 14.2698584 42.55078125 14.3984375 C43.25542064 51.19627207 43.25542064 51.19627207 37.55078125 64.3984375 C36.55078125 65.3984375 36.55078125 65.3984375 34.80078125 65.53125 C34.05828125 65.52867188 33.31578125 65.52609375 32.55078125 65.5234375 C31.82890625 65.52601562 31.10703125 65.52859375 30.36328125 65.53125 C27.55078125 65.3984375 27.55078125 65.3984375 25.64575195 64.97583008 C17.15703827 63.31248168 11.02584299 67.57512299 3.69726562 71.43945312 C-2.7584152 74.66107419 -7.48707341 75.86392318 -14.7019043 75.49584961 C-18.53165553 75.36005731 -21.72296742 76.08068957 -25.44921875 76.9609375 C-33.86017881 78.93225626 -33.86017881 78.93225626 -36.44921875 77.3984375 C-37.69997622 74.96725855 -38.63097215 72.77503941 -39.51171875 70.2109375 C-39.89686646 69.1271582 -39.89686646 69.1271582 -40.28979492 68.02148438 C-46.34515006 50.46883854 -46.65359896 32.74723897 -46.44921875 14.3984375 C-44.65484375 13.99625 -44.65484375 13.99625 -42.82421875 13.5859375 C-41.99921875 13.39773437 -41.17421875 13.20953125 -40.32421875 13.015625 C-38.3118261 12.5836168 -36.28948531 12.19662114 -34.26171875 11.84375 C-23.69985129 9.89940622 -14.54868457 5.99712234 -5.32421875 0.5546875 C-2.44921875 -0.6015625 -2.44921875 -0.6015625 0 0 Z " fill="#FBE88C" transform="translate(114.44921875,42.6015625)"/>
<path d="M0 0 C1.00740234 -0.01160156 2.01480469 -0.02320313 3.05273438 -0.03515625 C18.52426385 0.02454097 32.61933825 5.97212568 44.0625 16.375 C46.625 19.3125 46.625 19.3125 48.0625 21.375 C33.5399966 20.83412464 21.27274382 17.03858351 8.58374023 10.19726562 C4.00372617 7.77544905 4.00372617 7.77544905 -1.05078125 7.91015625 C-2.00339844 8.39355469 -2.95601562 8.87695312 -3.9375 9.375 C-5.05382812 9.88675781 -6.17015625 10.39851563 -7.3203125 10.92578125 C-7.92053223 11.2098584 -8.52075195 11.49393555 -9.13916016 11.78662109 C-20.84527245 17.26968207 -33.20609968 20.31507266 -45.9375 22.375 C-45.8310614 46.20681235 -45.66707595 68.88040762 -33.9375 90.375 C-33.41414063 91.3753125 -32.89078125 92.375625 -32.3515625 93.40625 C-25.21169055 106.41221393 -14.62446784 119.82158526 -0.9375 126.375 C8.43863762 125.86779008 16.91179688 116.4260364 23.03515625 109.9375 C40.67744595 90.02813346 45.91223857 65.71365785 47.75 40 C47.87998226 38.28118344 48.0108364 36.56243259 48.14257812 34.84375 C48.45924436 30.68818659 48.76420687 26.53192097 49.0625 22.375 C54.48832978 27.60045356 54.48832978 27.60045356 56.1953125 30.90625 C56.5253125 31.54498047 56.8553125 32.18371094 57.1953125 32.84179688 C57.52273437 33.51275391 57.85015625 34.18371094 58.1875 34.875 C58.53296875 35.58205078 58.8784375 36.28910156 59.234375 37.01757812 C66.33132815 52.06474406 67.15563697 67.91964992 62.3828125 83.7734375 C58.53291537 94.27522788 53.00145788 102.54688272 45.0625 110.375 C44.43730469 111.01050781 43.81210938 111.64601563 43.16796875 112.30078125 C31.54832971 123.33332274 15.83557374 128.64354216 0 128.875 C-19.40723346 128.28632658 -34.74599935 120.06391772 -47.9375 106.375 C-58.58760213 94.63543022 -63.53224412 79.80948537 -63.4375 64.1875 C-63.43177979 63.08905762 -63.42605957 61.99061523 -63.42016602 60.85888672 C-63.02050958 42.58234215 -55.05025688 27.95034881 -41.9375 15.375 C-29.49302441 5.17689141 -16.06725391 -0.18432796 0 0 Z " fill="#EBDDC4" transform="translate(111.9375,32.625)"/>
<path d="M0 0 C1.85334407 0.0590237 3.70840019 0.08861408 5.5625 0.0625 C6.40941406 0.05347656 7.25632812 0.04445313 8.12890625 0.03515625 C8.74636719 0.02355469 9.36382812 0.01195313 10 0 C6.51506867 11.88976572 1.09334718 22.60952495 -7 32 C-7.51949219 32.66257813 -8.03898437 33.32515625 -8.57421875 34.0078125 C-13.68757998 40.32213266 -20.8240937 47.1413791 -28.578125 49.92578125 C-34.54944114 50.1087732 -39.6789059 44.19061567 -43.84765625 40.43359375 C-52.07429274 32.47853811 -58.02871291 24.24151572 -63 14 C-60.25329383 13.31637535 -57.50397031 12.65318527 -54.75 12 C-53.99203125 11.80921875 -53.2340625 11.6184375 -52.453125 11.421875 C-47.86047347 10.35025631 -43.8701139 9.98258676 -39.15234375 10.22265625 C-32.06436577 10.35045927 -26.97604283 7.68751198 -20.8125 4.4375 C-13.29180637 0.48853896 -8.41696796 -1.81384654 0 0 Z " fill="#966E51" transform="translate(142,107)"/>
<path d="M0 0 C3.90460164 1.20600846 7.52296196 2.69019516 11.20263672 4.46240234 C20.5805434 8.91434738 29.9809213 10.97291883 40.19091797 12.63037109 C42 13 42 13 44 14 C45.3031466 31.37946476 45.3031466 31.37946476 42.5703125 36.875 C40.625 38.9375 40.625 38.9375 38.4453125 40.8359375 C35.32393832 43.59830379 32.98455239 46.73237964 30.5 50.0625 C29.63584183 51.199542 28.77129452 52.33628843 27.90625 53.47265625 C27.2771875 54.30667969 26.648125 55.14070313 26 56 C23.03 55.01 20.06 54.02 17 53 C17 49.7 17 46.4 17 43 C19.97 42.01 22.94 41.02 26 40 C26 37.36 26 34.72 26 32 C21.05 30.02 21.05 30.02 16 28 C16.33 27.01 16.66 26.02 17 25 C17.804375 25.4640625 17.804375 25.4640625 18.625 25.9375 C21.3984957 27.17827439 24.00042837 27.5909675 27 28 C25.6910428 24.87802522 25.6910428 24.87802522 23 23 C20.89044938 22.80261277 20.89044938 22.80261277 18.5625 22.8125 C17.78003906 22.79832031 16.99757812 22.78414062 16.19140625 22.76953125 C13.70794013 22.85913936 13.70794013 22.85913936 11 25 C10.74984127 28.58357241 10.74984127 28.58357241 11 32 C15.95 33.485 15.95 33.485 21 35 C21 36.32 21 37.64 21 39 C16.91621717 38.25749403 12.98060777 37.17076699 9 36 C10.80412643 39.26460973 11.83394693 40.88929795 15 43 C15.29296875 45.3828125 15.29296875 45.3828125 15.1875 48.125 C15.16042969 49.03507812 15.13335937 49.94515625 15.10546875 50.8828125 C15.07066406 51.58148438 15.03585938 52.28015625 15 53 C12.03 53.495 12.03 53.495 9 54 C3.56102875 46.61302841 2.27990494 41.36566585 2.875 32.3125 C3.19636069 23.48221489 2.63850729 16.27806673 -0.22265625 7.92578125 C-1.04950465 4.81367345 -0.90122275 3.05508845 0 0 Z " fill="#FCFBF8" transform="translate(113,43)"/>
<path d="M0 0 C0.58040039 0.28915283 1.16080078 0.57830566 1.75878906 0.8762207 C12.59907569 6.25750478 23.72298599 9.13194271 35.68359375 11.01953125 C37.66015625 11.4140625 37.66015625 11.4140625 38.66015625 12.4140625 C40.53212064 42.7493241 36.23067457 74.57913483 15.90185547 98.48144531 C1.24232825 114.66776746 1.24232825 114.66776746 -7.33984375 117.4140625 C-13.30925892 116.97704924 -16.93547629 113.11315544 -21.33984375 109.4140625 C-22.0875 108.81335938 -22.83515625 108.21265625 -23.60546875 107.59375 C-41.59363535 92.56168071 -52.3175149 69.38956775 -55.33984375 46.4140625 C-56.27522608 35.12178015 -56.28926766 23.73814837 -56.33984375 12.4140625 C-52.52403326 11.30592914 -48.72399842 10.22795773 -44.84375 9.37109375 C-33.25303303 6.71079501 -21.39005022 3.61315418 -11.27734375 -2.91796875 C-7.30009364 -4.2891578 -3.5801223 -1.70003468 0 0 Z M-11.09814453 -0.01269531 C-11.7373584 0.30860352 -12.37657227 0.62990234 -13.03515625 0.9609375 C-13.74615479 1.31003174 -14.45715332 1.65912598 -15.18969727 2.01879883 C-15.94049561 2.39673584 -16.69129395 2.77467285 -17.46484375 3.1640625 C-19.01667724 3.91597182 -20.5700483 4.66471676 -22.125 5.41015625 C-22.82246338 5.74974365 -23.51992676 6.08933105 -24.23852539 6.43920898 C-31.24129719 9.68796788 -38.37286035 11.10109431 -45.93383789 12.41333008 C-49.75020811 13.04122758 -49.75020811 13.04122758 -53.33984375 14.4140625 C-53.72611002 49.09218953 -48.40034159 78.74500501 -23.33984375 104.7265625 C-17.50341701 110.54687248 -17.50341701 110.54687248 -10.33984375 114.4140625 C-6.31880628 114.10721067 -4.0477227 112.74740034 -0.96484375 110.2265625 C-0.18496094 109.58976562 0.59492187 108.95296875 1.3984375 108.296875 C2.14480469 107.67554688 2.89117187 107.05421875 3.66015625 106.4140625 C4.27246094 105.93710938 4.88476562 105.46015625 5.515625 104.96875 C21.95348111 91.80341902 32.35405886 69.13898972 34.66015625 48.4140625 C35.88122365 37.09404944 35.76310175 25.7838211 35.66015625 14.4140625 C33.93141876 13.97486973 32.20213016 13.53784635 30.47265625 13.1015625 C28.8175 12.68003906 28.8175 12.68003906 27.12890625 12.25 C24.95294422 11.72561275 22.76556833 11.24463297 20.56640625 10.828125 C12.0881894 9.17958284 4.89715412 5.96738566 -2.78515625 2.15625 C-6.79454854 -0.13745014 -6.79454854 -0.13745014 -11.09814453 -0.01269531 Z " fill="#6B1115" transform="translate(121.33984375,42.5859375)"/>
<path d="M0 0 C0.15855469 0.88042969 0.31710938 1.76085937 0.48046875 2.66796875 C0.71378906 3.82941406 0.94710937 4.99085937 1.1875 6.1875 C1.40792969 7.33605469 1.62835938 8.48460938 1.85546875 9.66796875 C4.02812581 15.99314442 8.96961602 18.84730313 14.5 22.1875 C16.15515625 23.19876953 16.15515625 23.19876953 17.84375 24.23046875 C20.53051999 25.73678905 23.11160776 26.94918566 26 28 C21.6975685 32.73267465 16.68259342 37.02472345 11 40 C1.46176894 39.27465924 -7.04436055 28.62238275 -13 22 C-17.49765762 16.35506557 -20.85984507 10.46913877 -24 4 C-21.12666819 3.32533928 -18.25168518 2.6600766 -15.375 2 C-14.56675781 1.80921875 -13.75851563 1.6184375 -12.92578125 1.421875 C-8.52795831 0.42074457 -4.54438961 -0.2353082 0 0 Z " fill="#956C51" transform="translate(103,117)"/>
<path d="M0 0 C2.31 0 4.62 0 7 0 C7 0.66 7 1.32 7 2 C8.05320435 2.1700354 8.05320435 2.1700354 9.12768555 2.34350586 C12.29325432 3.067026 14.99210578 4.18109335 17.95703125 5.50390625 C19.06884766 5.99697266 20.18066406 6.49003906 21.32617188 6.99804688 C22.47666016 7.51431641 23.62714844 8.03058594 24.8125 8.5625 C26.56723633 9.34270508 26.56723633 9.34270508 28.35742188 10.13867188 C31.24032843 11.42127112 34.12106231 12.70852283 37 14 C35.52864016 17.86856439 33.93571904 20.70002206 31.25 23.875 C30.59515625 24.67679688 29.9403125 25.47859375 29.265625 26.3046875 C27 28 27 28 24.14453125 27.99609375 C20.49753997 26.84083564 17.66448633 25.24103675 14.4375 23.1875 C13.34308594 22.50042969 12.24867187 21.81335938 11.12109375 21.10546875 C2.47078857 15.27003134 2.47078857 15.27003134 1 11 C0.5859375 8.203125 0.5859375 8.203125 0.375 5.25 C0.30023438 4.26515625 0.22546875 3.2803125 0.1484375 2.265625 C0.09945312 1.51796875 0.05046875 0.7703125 0 0 Z " fill="#A77540" transform="translate(103,117)"/>
<path d="M0 0 C2.04296875 2.37109375 2.04296875 2.37109375 4.1875 5.4375 C4.90292969 6.44683594 5.61835937 7.45617188 6.35546875 8.49609375 C8 11 8 11 8 12 C4.04 12 0.08 12 -4 12 C-4 18.27 -4 24.54 -4 31 C-7.78223249 29.487107 -11.18633353 27.9263062 -14.75 26 C-15.71421875 25.484375 -16.6784375 24.96875 -17.671875 24.4375 C-20 23 -20 23 -21 21 C-21.07194869 18.11629667 -21.09291708 15.25760336 -21.0625 12.375 C-21.05798828 11.57320312 -21.05347656 10.77140625 -21.04882812 9.9453125 C-21.03703168 7.96350994 -21.01909605 5.98174567 -21 4 C-18.86350216 3.52503103 -16.72685809 3.0507664 -14.58984375 2.578125 C-12.89303495 2.19935018 -11.19764165 1.81416426 -9.50390625 1.421875 C-8.71886719 1.24140625 -7.93382813 1.0609375 -7.125 0.875 C-6.40570313 0.70742188 -5.68640625 0.53984375 -4.9453125 0.3671875 C-3 0 -3 0 0 0 Z " fill="#FCFBF8" transform="translate(89,53)"/>
<path d="M0 0 C12.25039333 -0.49496539 12.25039333 -0.49496539 15.86328125 1.890625 C18.74752848 4.7379623 19.18645185 6.36520277 19.3125 10.3125 C19.28413514 13.83541599 19.06650675 14.89358919 17.125 18 C12.27879411 22.56113495 6.36142368 21.0623669 0 21 C0 14.07 0 7.14 0 0 Z " fill="#680B12" transform="translate(85,65)"/>
<path d="M0 0 C5.92589322 2.52211912 11.84437054 5.06111372 17.75927734 7.60888672 C19.98166183 8.56286795 22.20605679 9.5121752 24.43212891 10.45751953 C27.87573129 11.92014813 31.31319511 13.39648142 34.75 14.875 C35.85077881 15.3388208 36.95155762 15.8026416 38.08569336 16.28051758 C39.1041333 16.72161865 40.12257324 17.16271973 41.171875 17.6171875 C42.0803418 18.00503418 42.98880859 18.39288086 43.92480469 18.79248047 C46 20 46 20 47 23 C36.17046197 21.33924017 25.63589796 18.69782028 15.0625 15.875 C14.37758484 15.69324219 13.69266968 15.51148437 12.98699951 15.32421875 C1.18272033 12.18272033 1.18272033 12.18272033 0 11 C-0.07226502 9.14712498 -0.0838122 7.29166122 -0.0625 5.4375 C-0.05347656 4.42558594 -0.04445313 3.41367188 -0.03515625 2.37109375 C-0.02355469 1.58863281 -0.01195313 0.80617188 0 0 Z " fill="#FEFDF9" transform="translate(70,83)"/>
<path d="M0 0 C0.66 0.33 1.32 0.66 2 1 C1.79503906 1.69351563 1.59007813 2.38703125 1.37890625 3.1015625 C0.90428465 6.73217309 1.76121479 8.91347383 2.9375 12.375 C6.11716867 22.66631456 5.36082007 33.3516447 5 44 C2.69 44 0.38 44 -2 44 C-2 37.07 -2 30.14 -2 23 C-1.34 23 -0.68 23 0 23 C-0.433125 21.86820313 -0.86625 20.73640625 -1.3125 19.5703125 C-1.87517286 18.0886073 -2.43766343 16.60683286 -3 15.125 C-3.42925781 14.00544922 -3.42925781 14.00544922 -3.8671875 12.86328125 C-6 7.2265625 -6 7.2265625 -6 5 C-6.66 4.67 -7.32 4.34 -8 4 C-6.71349294 3.30289269 -5.42059335 2.61757124 -4.125 1.9375 C-3.40570313 1.55464844 -2.68640625 1.17179687 -1.9453125 0.77734375 C-1.30335937 0.52082031 -0.66140625 0.26429687 0 0 Z " fill="#F3DE8F" transform="translate(112,42)"/>
<path d="M0 0 C2.5625 1.875 2.5625 1.875 4 4 C4 4.66 4 5.32 4 6 C0.05272412 6.17942163 -2.5980513 6.09350689 -6 4 C-6 4.66 -6 5.32 -6 6 C-5.36191406 6.20496094 -4.72382813 6.40992187 -4.06640625 6.62109375 C-3.24011719 6.89050781 -2.41382813 7.15992187 -1.5625 7.4375 C-0.73878906 7.70433594 0.08492187 7.97117187 0.93359375 8.24609375 C3 9 3 9 4 10 C4.28309867 12.92535287 4.49099587 15.15679137 4 18 C1.29707324 20.70292676 -1.29993355 21.21969194 -5 21.5 C-8.49790312 21.3807533 -9.04575956 20.96377368 -12 18.625 C-14 16 -14 16 -14 14 C-11.125 13.875 -11.125 13.875 -8 14 C-7.34 14.66 -6.68 15.32 -6 16 C-3.93125966 16.6425235 -3.93125966 16.6425235 -2 17 C-2 15.68 -2 14.36 -2 13 C-3.258125 12.731875 -4.51625 12.46375 -5.8125 12.1875 C-8.23856525 11.56917541 -9.89556895 11.06853288 -12 9.6875 C-13.4397827 7.25786669 -13.48461324 5.76921852 -13 3 C-9.79503075 -1.04104818 -4.73192553 -0.80746619 0 0 Z " fill="#690F13" transform="translate(136,65)"/>
<path d="M0 0 C9.41968219 0.36160008 18.51653428 1.85254378 27.77563477 3.54003906 C33.1757254 4.52346124 38.54562719 5.38033161 44 6 C44 6.99 44 7.98 44 9 C30.47 9 16.94 9 3 9 C0 3 0 3 0 0 Z " fill="#FDFDFA" transform="translate(72,101)"/>
<path d="M0 0 C5.91969002 1.75990784 11.41634992 4.39694605 17 7 C14.99519921 12.74845941 11.63964099 17.07614005 7 21 C3.625 21.3125 3.625 21.3125 1 20 C-1.57316183 16.42374119 -1.26386898 12.53691065 -1.1875 8.3125 C-1.18685547 7.62349609 -1.18621094 6.93449219 -1.18554688 6.22460938 C-1.14055525 1.14055525 -1.14055525 1.14055525 0 0 Z " fill="#AE7948" transform="translate(123,124)"/>
<path d="M0 0 C0.886875 0.825 1.77375 1.65 2.6875 2.5 C9.17328787 8.07061535 16.95801762 13.07020716 25 16 C23.140625 18.59765625 23.140625 18.59765625 20 21 C16.44512403 21.10927499 13.18731799 20.28462311 9.75 19.4375 C8.82703125 19.24091797 7.9040625 19.04433594 6.953125 18.84179688 C2.07813692 17.74850911 2.07813692 17.74850911 0 17 C-1.54897985 13.9020403 -0.83239539 10.73783448 -0.5625 7.375 C-0.51029297 6.66859375 -0.45808594 5.9621875 -0.40429688 5.234375 C-0.27458793 3.48920013 -0.13795046 1.74454275 0 0 Z " fill="#82614F" transform="translate(104,129)"/>
<path d="M0 0 C1.0063655 2.43504509 2.00526413 4.87270864 3 7.3125 C3.28617188 8.00279297 3.57234375 8.69308594 3.8671875 9.40429688 C5.08910744 12.41545674 6 14.71886984 6 18 C5.34 18 4.68 18 4 18 C4 21.3 4 24.6 4 28 C1.44618183 25.44618183 -0.08895925 23.44222108 -1.91796875 20.40234375 C-2.71557617 19.07686523 -2.71557617 19.07686523 -3.52929688 17.72460938 C-4.07650391 16.80486328 -4.62371094 15.88511719 -5.1875 14.9375 C-5.74630859 14.01388672 -6.30511719 13.09027344 -6.88085938 12.13867188 C-7.40873047 11.25630859 -7.93660156 10.37394531 -8.48046875 9.46484375 C-8.96410889 8.656521 -9.44774902 7.84819824 -9.94604492 7.01538086 C-11 5 -11 5 -11 3 C-4.5 0 -4.5 0 0 0 Z " fill="#FCFBF8" transform="translate(106,47)"/>
<path d="M0 0 C3.84018203 1.53607281 7.21848332 3.13313533 10.8125 5.125 C12.27623047 5.93324219 12.27623047 5.93324219 13.76953125 6.7578125 C14.50558594 7.16773437 15.24164063 7.57765625 16 8 C16 8.66 16 9.32 16 10 C17.06323486 10.15867554 17.06323486 10.15867554 18.14794922 10.32055664 C21.34205694 11.08148814 23.75557821 12.29293629 26.6328125 13.87109375 C27.68597656 14.44537109 28.73914063 15.01964844 29.82421875 15.61132812 C30.91347656 16.21396484 32.00273438 16.81660156 33.125 17.4375 C34.22199219 18.03626953 35.31898437 18.63503906 36.44921875 19.25195312 C44.46573795 23.6438253 44.46573795 23.6438253 48 26 C47.67 26.66 47.34 27.32 47 28 C42.35893063 25.95614519 37.71824166 23.91142982 33.07788086 21.8659668 C31.50408816 21.17237927 29.93019746 20.47901407 28.35620117 19.78588867 C19.54787136 15.90686267 10.74738524 12.01525209 2 8 C1.67 9.98 1.34 11.96 1 14 C0.67 14 0.34 14 0 14 C0 9.38 0 4.76 0 0 Z " fill="#FAE78F" transform="translate(69,76)"/>
<path d="M0 0 C2.97 1.98 2.97 1.98 6 4 C7.37285156 4.86818359 7.37285156 4.86818359 8.7734375 5.75390625 C15.68922763 10.56173032 15.68922763 10.56173032 16.640625 14.96484375 C16.62648372 17.71178706 16.44802717 20.29192463 16 23 C10.35447383 20.87389691 5.27034249 17.92091271 0 15 C0 10.05 0 5.1 0 0 Z " fill="#FEFEFC" transform="translate(69,61)"/>
<path d="M0 0 C-0.125 1.8125 -0.125 1.8125 -1 4 C-5.69206853 7.55075456 -9.9761053 7.07701485 -15.55859375 6.90234375 C-20.78862329 7.05075548 -25.66889088 8.2505213 -30.75 9.44140625 C-33.70611587 9.94948866 -35.24490277 10.0400492 -38 9 C-38.33 7.35 -38.66 5.7 -39 4 C-34.24987336 3.42658396 -29.49930454 2.85703648 -24.74829102 2.29101562 C-23.13325584 2.09805963 -21.51834489 1.90406072 -19.90356445 1.70898438 C-17.57795851 1.42822135 -15.25192659 1.15125395 -12.92578125 0.875 C-12.20787918 0.78750488 -11.48997711 0.70000977 -10.75032043 0.60986328 C-7.14635822 0.18563236 -3.62943246 -0.09901265 0 0 Z " fill="#FAF7EB" transform="translate(116,111)"/>
<path d="M0 0 C0.33 0 0.66 0 1 0 C2.21749737 12.83445141 2.21749737 12.83445141 -0.4296875 17.54296875 C-1.75598821 18.96248337 -3.13471806 20.33434249 -4.5546875 21.66015625 C-7.57448743 24.54970921 -9.99629214 27.72691791 -12.5 31.0625 C-13.36453497 32.19925553 -14.22911424 33.33597738 -15.09375 34.47265625 C-15.7228125 35.30667969 -16.351875 36.14070313 -17 37 C-17.66 36.67 -18.32 36.34 -19 36 C-17.69527734 31.72246141 -16.04865843 28.01017831 -13.84765625 24.12109375 C-13.23599609 23.03505859 -12.62433594 21.94902344 -11.99414062 20.83007812 C-11.03797852 19.15075195 -11.03797852 19.15075195 -10.0625 17.4375 C-9.11213867 15.75237305 -9.11213867 15.75237305 -8.14257812 14.03320312 C-6.4379202 11.01644258 -4.72950052 8.00258668 -3 5 C-2.45786865 4.05648682 -1.9157373 3.11297363 -1.35717773 2.14086914 C-0.90930908 1.43438232 -0.46144043 0.72789551 0 0 Z " fill="#FDFCF7" transform="translate(156,62)"/>
<path d="M0 0 C2.66931006 5.12552394 4.35375916 10.16297391 4 16 C4.66 16 5.32 16 6 16 C8.625 17.875 8.625 17.875 11 21 C11.42767355 24.37501413 11.29559869 27.61703725 11 31 C9.02 31.33 7.04 31.66 5 32 C0.5426391 27.32300103 -1.19825226 22.85778865 -1.17578125 16.4375 C-0.97209749 10.9438325 -0.5496649 5.46938104 0 0 Z " fill="#FBE992" transform="translate(117,65)"/>
<path d="M0 0 C7.94553478 0.65027395 15.47107 2.88666999 23.125 5 C25.14880729 5.55585822 27.17302836 6.11006404 29.19821167 6.66088867 C31.03042809 7.15963028 32.86120694 7.66364433 34.69189453 8.16796875 C37.78612459 8.94620757 40.84641685 9.52561484 44 10 C43.34 10.66 42.68 11.32 42 12 C38.9443746 11.7952251 36.0244901 11.44660402 33 11 C31.91251465 10.85175781 30.8250293 10.70351562 29.70458984 10.55078125 C26.03011494 10.04791073 22.35875602 9.52582598 18.6875 9 C16.79547852 8.73316406 16.79547852 8.73316406 14.86523438 8.4609375 C13.65544922 8.28820312 12.44566406 8.11546875 11.19921875 7.9375 C10.10440186 7.78152344 9.00958496 7.62554687 7.8815918 7.46484375 C5.53598827 7.08646291 3.28904754 6.62658561 1 6 C0.67 4.02 0.34 2.04 0 0 Z " fill="#FBE990" transform="translate(71,95)"/>
<path d="M0 0 C8.91 1.65 17.82 3.3 27 5 C25.85343125 8.43970626 25.15481722 8.8782229 22.1875 10.75 C21.50042969 11.19859375 20.81335938 11.6471875 20.10546875 12.109375 C17.50113263 13.21102367 16.59855583 13.04244391 14 12 C11.81640625 10.80078125 11.81640625 10.80078125 9.5625 9.3125 C8.82128906 8.83425781 8.08007812 8.35601562 7.31640625 7.86328125 C5 6 5 6 0 0 Z " fill="#B07A50" transform="translate(96,144)"/>
<path d="M0 0 C4.56704279 2.094419 6.7866133 7.90233076 9.27832031 12.05517578 C9.92800781 13.08900391 10.57769531 14.12283203 11.24707031 15.18798828 C16.98959785 24.64626893 16.98959785 24.64626893 16.02832031 30.93017578 C12.84612966 28.33727969 11.33785921 25.65068743 9.65332031 21.99267578 C7.46073295 17.3996411 5.07747591 15.07033727 1.02832031 11.93017578 C-4.97167969 4.91878626 -4.97167969 4.91878626 -4.97167969 1.93017578 C-1.97167969 -0.06982422 -1.97167969 -0.06982422 0 0 Z " fill="#FAE58A" transform="translate(93.9716796875,51.06982421875)"/>
<path d="M0 0 C4.3336985 2.73307701 9.2578451 6.26077373 10.64453125 11.37890625 C10.625 13.5625 10.625 13.5625 10 17 C6.28939292 14.88060821 3.00116082 12.5076108 -0.3125 9.8125 C-1.63701172 8.73935547 -1.63701172 8.73935547 -2.98828125 7.64453125 C-3.98408203 6.83048828 -3.98408203 6.83048828 -5 6 C-5.33 9.96 -5.66 13.92 -6 18 C-6.33 18 -6.66 18 -7 18 C-7 12.39 -7 6.78 -7 1 C-4.38561975 -0.30719013 -2.91135079 -0.33608667 0 0 Z " fill="#F4E08D" transform="translate(75,56)"/>
<path d="M0 0 C0.60521484 0.48082031 1.21042969 0.96164063 1.83398438 1.45703125 C2.45466797 1.95589844 3.07535156 2.45476562 3.71484375 2.96875 C4.95495503 3.95930328 6.19581379 4.94892165 7.4375 5.9375 C7.982854 6.37513672 8.52820801 6.81277344 9.09008789 7.26367188 C10.56166845 8.39880575 12.10596574 9.43783133 13.65234375 10.46875 C13.32234375 11.45875 12.99234375 12.44875 12.65234375 13.46875 C5.36968769 10.01685522 -1.64682843 6.22883538 -8.59765625 2.15625 C-9.36070068 1.71168457 -10.12374512 1.26711914 -10.90991211 0.80908203 C-12.74092633 -0.27378258 -14.54711243 -1.3984434 -16.34765625 -2.53125 C-16.34765625 -2.86125 -16.34765625 -3.19125 -16.34765625 -3.53125 C-14.93332419 -3.7548837 -13.51598007 -3.95951476 -12.09765625 -4.15625 C-10.91429688 -4.33027344 -10.91429688 -4.33027344 -9.70703125 -4.5078125 C-5.73296539 -4.54728998 -3.01606606 -2.41534289 0 0 Z " fill="#FEFDF8" transform="translate(105.34765625,89.53125)"/>
<path d="M0 0 C1.9375 0.75 1.9375 0.75 4 2 C4.75 4.125 4.75 4.125 5 6 C5.66 6 6.32 6 7 6 C7 6.66 7 7.32 7 8 C5.68 8.33 4.36 8.66 3 9 C3.309375 10.27875 3.61875 11.5575 3.9375 12.875 C4.11152344 13.59429687 4.28554688 14.31359375 4.46484375 15.0546875 C4.94846992 17.0585657 4.94846992 17.0585657 6 19 C6.99 19.33 7.98 19.66 9 20 C9 20.99 9 21.98 9 23 C8.34 23 7.68 23 7 23 C7.66 24.32 8.32 25.64 9 27 C9.8971875 26.5359375 9.8971875 26.5359375 10.8125 26.0625 C13 25 13 25 16 24 C16 24.99 16 25.98 16 27 C12.03302707 30.08542339 12.03302707 30.08542339 8.96875 29.83203125 C6.33514199 28.71901834 5.89535187 27.5145417 4.75 24.9375 C4.41484375 24.20402344 4.0796875 23.47054687 3.734375 22.71484375 C3.49203125 22.14894531 3.2496875 21.58304688 3 21 C2.67 22.32 2.34 23.64 2 25 C-1 20.375 -1 20.375 -1 17 C-0.34 16.67 0.32 16.34 1 16 C0.835 14.72125 0.67 13.4425 0.5 12.125 C-0.02453919 8.05982127 0 4.10012102 0 0 Z " fill="#E8DFDF" transform="translate(38,108)"/>
<path d="M0 0 C0.33 0 0.66 0 1 0 C3.27164302 17.27199649 5.0934519 36.8130962 -3 53 C-3.99 52.67 -4.98 52.34 -6 52 C-5.73445312 51.09507813 -5.46890625 50.19015625 -5.1953125 49.2578125 C-0.89696157 33.16540416 -0.70128741 16.55437383 0 0 Z " fill="#701B1B" transform="translate(157,57)"/>
<path d="M0 0 C1.32 0.33 2.64 0.66 4 1 C3.74256103 8.28037407 0.1747471 13.64270468 -3.4375 19.8125 C-4.03626953 20.86115234 -4.63503906 21.90980469 -5.25195312 22.99023438 C-9.67857143 30.67857143 -9.67857143 30.67857143 -12 33 C-13.25657534 29.23027399 -12.54585669 28.26255238 -11.015625 24.66796875 C-10.57476562 23.62189453 -10.13390625 22.57582031 -9.6796875 21.49804688 C-9.20789063 20.40556641 -8.73609375 19.31308594 -8.25 18.1875 C-7.79367188 17.10662109 -7.33734375 16.02574219 -6.8671875 14.91210938 C-4.72186789 9.8619278 -2.54553795 4.86197749 0 0 Z " fill="#FCE88E" transform="translate(153,56)"/>
<path d="M0 0 C5.61 0 11.22 0 17 0 C15.66666667 4 14.33333333 8 13 12 C6.95566426 10.64002446 3.36505864 7.14348206 -1 3 C-0.67 2.01 -0.34 1.02 0 0 Z " fill="#B07D4A" transform="translate(135,107)"/>
<path d="M0 0 C1.98 0 3.96 0 6 0 C6 6.93 6 13.86 6 21 C4.02 21 2.04 21 0 21 C0 14.07 0 7.14 0 0 Z " fill="#670A0F" transform="translate(110,65)"/>
<path d="M0 0 C0.33 0 0.66 0 1 0 C1 1.65 1 3.3 1 5 C2.32 5.33 3.64 5.66 5 6 C5 6.66 5 7.32 5 8 C2.525 7.505 2.525 7.505 0 7 C0 7.99 0 8.98 0 10 C-0.66 10 -1.32 10 -2 10 C-2 8.35 -2 6.7 -2 5 C-2.226875 6.11375 -2.45375 7.2275 -2.6875 8.375 C-4 12 -4 12 -6.4375 13.4375 C-9 14 -9 14 -12 14 C-14.09230769 9.56923077 -14.09230769 9.56923077 -13.625 6.6875 C-13.41875 6.130625 -13.2125 5.57375 -13 5 C-11.02 4.67 -9.04 4.34 -7 4 C-7 3.34 -7 2.68 -7 2 C-4.69 2.33 -2.38 2.66 0 3 C0 2.01 0 1.02 0 0 Z " fill="#6D171C" transform="translate(161,186)"/>
<path d="M0 0 C4.64475959 -0.04944066 9.28936596 -0.08573863 13.93432617 -0.10986328 C15.51443144 -0.11992041 17.0945181 -0.13356785 18.67456055 -0.15087891 C20.9458475 -0.17514022 23.21688836 -0.18648582 25.48828125 -0.1953125 C26.54780754 -0.21079636 26.54780754 -0.21079636 27.6287384 -0.22659302 C31.32197792 -0.22743775 32.83919216 -0.10720523 36 2 C31.66749763 2.50737777 27.33388373 3.00457148 23 3.5 C21.77925781 3.64308594 20.55851562 3.78617187 19.30078125 3.93359375 C13.1593321 4.63073122 7.18121183 5.18543635 1 5 C0.67 3.35 0.34 1.7 0 0 Z " fill="#FBE88D" transform="translate(75,110)"/>
<path d="M0 0 C4.0042343 3.49087093 5.62671065 5.64951939 6 11 C6.87398438 11.09474609 6.87398438 11.09474609 7.765625 11.19140625 C10.92409123 12.33441763 11.89759045 14.17867638 13.75 16.9375 C14.36359375 17.83339844 14.9771875 18.72929688 15.609375 19.65234375 C17 22 17 22 17 24 C11.95307398 23.08728013 9.26527419 19.96585593 5.6875 16.5 C4.70040039 15.61828125 4.70040039 15.61828125 3.69335938 14.71875 C-0.90163993 10.2629931 -0.90163993 10.2629931 -1.19287109 6.5234375 C-0.94553608 4.28116764 -0.57980461 2.1782439 0 0 Z " fill="#FDFBF5" transform="translate(104,75)"/>
<path d="M0 0 C3.3 1.98 6.6 3.96 10 6 C8.68139111 10.61513112 6.78644563 14.09897612 4 18 C2.68 17.67 1.36 17.34 0 17 C0 11.39 0 5.78 0 0 Z " fill="#876450" transform="translate(137,113)"/>
<path d="M0 0 C2.49361571 1.20381448 4.68143083 2.45428722 7 4 C8.32 3.34 9.64 2.68 11 2 C11 2.66 11 3.32 11 4 C9.61355063 4.94684347 8.22125083 5.88625246 6.80078125 6.78125 C3.646713 8.91589055 0.84459759 11.47520924 -2 14 C-5.84375 12.328125 -5.84375 12.328125 -7.25 9.375 C-7.4975 8.59125 -7.745 7.8075 -8 7 C-5.8125 4.9375 -5.8125 4.9375 -3 3 C-0.1875 3.25 -0.1875 3.25 2 4 C1.34 2.68 0.68 1.36 0 0 Z " fill="#6F1B20" transform="translate(183,171)"/>
<path d="M0 0 C4.455 0.99 4.455 0.99 9 2 C8.67 5.96 8.34 9.92 8 14 C5.36 13.67 2.72 13.34 0 13 C0 8.71 0 4.42 0 0 Z " fill="#FEFEFB" transform="translate(129,51)"/>
<path d="M0 0 C0.31563182 5.26053037 -0.33409063 8.44573816 -3 13 C-5.64 13 -8.28 13 -11 13 C-11.33 11.02 -11.66 9.04 -12 7 C-10.18924982 5.83061933 -8.37635257 4.66456267 -6.5625 3.5 C-5.55316406 2.8503125 -4.54382813 2.200625 -3.50390625 1.53125 C-1 0 -1 0 0 0 Z " fill="#FDFAEA" transform="translate(154,95)"/>
<path d="M0 0 C0.99 0 1.98 0 3 0 C2.835 0.763125 2.67 1.52625 2.5 2.3125 C1.90854604 5.03596236 1.90854604 5.03596236 2 8 C-0.66666667 8 -3.33333333 8 -6 8 C-6.99 8.66 -7.98 9.32 -9 10 C-11.04296875 10.1953125 -11.04296875 10.1953125 -13.1875 10.125 C-15.0746875 10.063125 -15.0746875 10.063125 -17 10 C-17 9.67 -17 9.34 -17 9 C-14.36 8.34 -11.72 7.68 -9 7 C-10.32 6.34 -11.64 5.68 -13 5 C-12.34 3.68 -11.68 2.36 -11 1 C-7.37 1.33 -3.74 1.66 0 2 C0 1.34 0 0.68 0 0 Z " fill="#E4D9D9" transform="translate(124,169)"/>
<path d="M0 0 C0.99 0 1.98 0 3 0 C4.24593717 5.79664672 3.62098651 9.73571977 1.75 15.3125 C1.53214844 16.02728516 1.31429687 16.74207031 1.08984375 17.47851562 C-0.11995885 21.23173364 -0.6305291 22.75368607 -4 25 C-4 21.61976483 -3.12544378 19.16531063 -2 16 C-2.99 16.33 -3.98 16.66 -5 17 C-5.33 16.01 -5.66 15.02 -6 14 C-4.35 13.34 -2.7 12.68 -1 12 C-0.92221996 9.2776985 -1.00547664 6.97645046 -1.625 4.3125 C-1.74875 3.549375 -1.8725 2.78625 -2 2 C-1.34 1.34 -0.68 0.68 0 0 Z " fill="#DED1D2" transform="translate(183,108)"/>
<path d="M0 0 C0.35122958 2.98864443 0.58404212 5.09974527 0 8 C-1.92526083 10.40253754 -4.27806256 11.88390195 -6.875 13.5 C-7.52597656 13.94085938 -8.17695313 14.38171875 -8.84765625 14.8359375 C-13.61340256 18 -13.61340256 18 -16 18 C-14.45104373 14.40242415 -12.26304052 11.87467538 -9.625 9 C-8.85414063 8.154375 -8.08328125 7.30875 -7.2890625 6.4375 C-1.24358974 0 -1.24358974 0 0 0 Z " fill="#FCFBF3" transform="translate(156,83)"/>
<path d="M0 0 C2.96175123 0.61277612 4.38058783 1.25372522 7 3 C6.67 7.29 6.34 11.58 6 16 C7.65 16 9.3 16 11 16 C11 16.33 11 16.66 11 17 C8.03 17.33 5.06 17.66 2 18 C1.66191314 15.93827387 1.32972639 13.8755797 1 11.8125 C0.814375 10.66394531 0.62875 9.51539063 0.4375 8.33203125 C0.06510523 5.49584607 -0.08596021 2.85280436 0 0 Z " fill="#F8E48F" transform="translate(123,48)"/>
<path d="M0 0 C0.33 0.66 0.66 1.32 1 2 C-0.4577353 2.335939 -1.91621106 2.66866624 -3.375 3 C-4.18710938 3.185625 -4.99921875 3.37125 -5.8359375 3.5625 C-8 4 -8 4 -10 4 C-9.98839844 5.14597656 -9.97679688 6.29195312 -9.96484375 7.47265625 C-9.95545758 9.00260252 -9.94635827 10.53255058 -9.9375 12.0625 C-9.92912109 12.81466797 -9.92074219 13.56683594 -9.91210938 14.34179688 C-9.89191659 19.00633118 -10.22404041 23.39923173 -11 28 C-11.33 28 -11.66 28 -12 28 C-12.65655389 19.31238511 -13.16311941 10.71782637 -13 2 C-8.46298506 0.54815522 -4.81938524 -0.23509196 0 0 Z " fill="#65080B" transform="translate(78,53)"/>
<path d="M0 0 C0.99 0.33 1.98 0.66 3 1 C2.75 3.375 2.75 3.375 2 6 C0 7.125 0 7.125 -2 8 C-2.33 8.99 -2.66 9.98 -3 11 C-7.51912013 15.51912013 -11.88289668 17.32799176 -18 19 C-18.20086443 15.28400809 -18.1519437 14.22791555 -16 11 C-14.700625 11.6496875 -14.700625 11.6496875 -13.375 12.3125 C-9.83073786 13.44839662 -9.83073786 13.44839662 -6.6875 10.8125 C-3.84091181 8.23402793 -3.84091181 8.23402793 -3 5 C-2.01 4.67 -1.02 4.34 0 4 C-0.33 3.34 -0.66 2.68 -1 2 C-0.67 1.34 -0.34 0.68 0 0 Z " fill="#F1ECEC" transform="translate(167,145)"/>
<path d="M0 0 C3.63 0 7.26 0 11 0 C11 0.33 11 0.66 11 1 C8.03 1 5.06 1 2 1 C2 6.94 2 12.88 2 19 C5.96 19 9.92 19 14 19 C13.67 19.66 13.34 20.32 13 21 C8.71 21 4.42 21 0 21 C0 14.07 0 7.14 0 0 Z " fill="#732123" transform="translate(85,65)"/>
<path d="M0 0 C2.5625 0.3125 2.5625 0.3125 4.4375 1.5 C5.5625 3.3125 5.5625 3.3125 5.3125 5.9375 C4.5625 8.3125 4.5625 8.3125 3.5625 9.3125 C-3.1575 8.5925 -3.1575 8.5925 -4.4375 7.3125 C-4.625 4.875 -4.625 4.875 -4.4375 2.3125 C-2.4375 0.3125 -2.4375 0.3125 0 0 Z " fill="#E4DADA" transform="translate(59.4375,184.6875)"/>
<path d="M0 0 C1.875 0.3125 1.875 0.3125 4 1 C6 4 6 4 5.625 6.1875 C5.41875 6.785625 5.2125 7.38375 5 8 C4.30132812 7.97679687 3.60265625 7.95359375 2.8828125 7.9296875 C1.97273438 7.91164062 1.06265625 7.89359375 0.125 7.875 C-0.77992187 7.85179687 -1.68484375 7.82859375 -2.6171875 7.8046875 C-5.18806994 7.75675164 -5.18806994 7.75675164 -7 10 C-10.4375 10.3125 -10.4375 10.3125 -14 10 C-14.99 9.01 -15.98 8.02 -17 7 C-13.7 7.33 -10.4 7.66 -7 8 C-7.33 6.68 -7.66 5.36 -8 4 C-4.38970831 4 -1.44193324 4.96092582 2 6 C2 5.01 2 4.02 2 3 C1.34 3 0.68 3 0 3 C0 2.01 0 1.02 0 0 Z " fill="#D1BABB" transform="translate(101,166)"/>
<path d="M0 0 C1.32 0 2.64 0 4 0 C5.20272819 2.40545638 5.10071472 3.94996953 5.0625 6.625 C5.05347656 7.44226563 5.04445313 8.25953125 5.03515625 9.1015625 C5.02355469 9.72804688 5.01195312 10.35453125 5 11 C2.69 11 0.38 11 -2 11 C-2.05399736 9.54207116 -2.09279177 8.08357288 -2.125 6.625 C-2.15980469 5.40683594 -2.15980469 5.40683594 -2.1953125 4.1640625 C-2 2 -2 2 0 0 Z " fill="#BB9A9B" transform="translate(36,87)"/>
<path d="M0 0 C1.65 0 3.3 0 5 0 C7 2 7 2 7.25 5.5 C7 9 7 9 5 11 C3.35 11 1.7 11 0 11 C0 7.37 0 3.74 0 0 Z " fill="#E1C88C" transform="translate(91,70)"/>
<path d="M0 0 C2.4375 0.75 2.4375 0.75 5 2 C5.34342449 3.33076989 5.67619874 4.66431979 6 6 C6.804375 6.474375 7.60875 6.94875 8.4375 7.4375 C11.4803882 9.29291963 12.00487602 10.65276481 13 14 C12.34 14 11.68 14 11 14 C10.67 13.01 10.34 12.02 10 11 C7.98491642 10.26676204 7.98491642 10.26676204 6 10 C5.67 10.99 5.34 11.98 5 13 C4.67 11.68 4.34 10.36 4 9 C3.38125 8.87625 2.7625 8.7525 2.125 8.625 C0 8 0 8 -2 6 C-1.67 5.01 -1.34 4.02 -1 3 C-0.34 3.66 0.32 4.32 1 5 C0.67 3.35 0.34 1.7 0 0 Z " fill="#BD9E9F" transform="translate(164,38)"/>
<path d="M0 0 C3.0625 0.1875 3.0625 0.1875 5.0625 2.1875 C5.3125 4.6875 5.3125 4.6875 5.0625 7.1875 C3.0625 9.1875 3.0625 9.1875 -0.0625 9.3125 C-1.485625 9.250625 -1.485625 9.250625 -2.9375 9.1875 C-3.81640625 3.03515625 -3.81640625 3.03515625 -3.9375 1.1875 C-2.9375 0.1875 -2.9375 0.1875 0 0 Z " fill="#D9CACA" transform="translate(134.9375,194.8125)"/>
<path d="M0 0 C1.98 1.65 3.96 3.3 6 5 C6 4.01 6 3.02 6 2 C6.99 2 7.98 2 9 2 C8.67 3.98 8.34 5.96 8 8 C9.32 8 10.64 8 12 8 C12.66 6.35 13.32 4.7 14 3 C14.99 3 15.98 3 17 3 C16.40072174 6.35595828 15.15377564 8.37801226 13 11 C10.03 10.505 10.03 10.505 7 10 C6.67 9.01 6.34 8.02 6 7 C4.67203709 6.64587656 3.33783393 6.31478446 2 6 C0.25 4.4375 0.25 4.4375 -1 3 C-0.67 2.01 -0.34 1.02 0 0 Z " fill="#E3D8D8" transform="translate(57,150)"/>
<path d="M0 0 C1.31625194 2.63250388 0.74813658 3.80179056 0.0625 6.625 C-0.13214844 7.44226563 -0.32679688 8.25953125 -0.52734375 9.1015625 C-0.76130859 10.04128906 -0.76130859 10.04128906 -1 11 C2.24732932 9.37633534 2.70155136 6.24612161 4 3 C4.66 3 5.32 3 6 3 C4.84414715 6.91211733 3.64465038 9.8745041 1 13 C-0.98 12.34 -2.96 11.68 -5 11 C-5 7.7 -5 4.4 -5 1 C-3.35 0.67 -1.7 0.34 0 0 Z " fill="#FAE99A" transform="translate(135,85)"/>
<path d="M0 0 C2.31 0.33 4.62 0.66 7 1 C6.01 1.495 6.01 1.495 5 2 C4.73579883 3.94848361 4.47906636 5.89873946 4.28515625 7.85546875 C3.90472105 10.71654994 3.01053362 13.30524369 2 16 C-0.046875 14.390625 -0.046875 14.390625 -2 12 C-1.953125 8.984375 -1.953125 8.984375 -1.25 5.75 C-1.02828125 4.67234375 -0.8065625 3.5946875 -0.578125 2.484375 C-0.38734375 1.66453125 -0.1965625 0.8446875 0 0 Z " fill="#F6E28B" transform="translate(138,53)"/>
<path d="M0 0 C0.66 0 1.32 0 2 0 C4 3 4 3 4 6 C2.68 6.33 1.36 6.66 0 7 C0 7.99 0 8.98 0 10 C-1.65 10.66 -3.3 11.32 -5 12 C-6.5 10.6875 -6.5 10.6875 -8 9 C-8 8.01 -8 7.02 -8 6 C-7.34 6 -6.68 6 -6 6 C-6 5.34 -6 4.68 -6 4 C-3.69 4 -1.38 4 1 4 C0.67 2.68 0.34 1.36 0 0 Z " fill="#E6DCDC" transform="translate(64,34)"/>
<path d="M0 0 C1.9375 0.25 1.9375 0.25 4 1 C6.56687367 4.8503105 5.83288724 6.58569763 5 11 C0.125 10.125 0.125 10.125 -1 9 C-1.1328125 7.1875 -1.1328125 7.1875 -1.125 5 C-1.12757813 4.278125 -1.13015625 3.55625 -1.1328125 2.8125 C-1 1 -1 1 0 0 Z " fill="#E8DFDF" transform="translate(184,75)"/>
<path d="M0 0 C3.16115776 1.36983503 3.9927092 1.9890638 6 5 C5.625 7.6875 5.625 7.6875 5 10 C3.68 10.33 2.36 10.66 1 11 C-1.01544839 8.73262056 -1.94914998 7.42714016 -2.3125 4.375 C-2 2 -2 2 0 0 Z " fill="#DCCECE" transform="translate(181,63)"/>
<path d="M0 0 C1.41681634 0.31182069 2.83344651 0.62448737 4.25 0.9375 C5.43335938 1.19853516 5.43335938 1.19853516 6.640625 1.46484375 C8.76878703 1.947556 10.88532842 2.46163178 13 3 C12.67 5.64 12.34 8.28 12 11 C8.57472113 9.52651292 6.35044942 7.59092154 3.75 4.9375 C3.04359375 4.22464844 2.3371875 3.51179687 1.609375 2.77734375 C0 1 0 1 0 0 Z " fill="#4B0F16" transform="translate(25,148)"/>
<path d="M0 0 C0.99 0 1.98 0 3 0 C3 0.66 3 1.32 3 2 C4.65 2.33 6.3 2.66 8 3 C7.01 3.33 6.02 3.66 5 4 C4.67 6.31 4.34 8.62 4 11 C2.68 11 1.36 11 0 11 C-1.7578125 5.04296875 -1.7578125 5.04296875 -2 3 C-1.34 2.01 -0.68 1.02 0 0 Z " fill="#701A20" transform="translate(85,193)"/>
<path d="M0 0 C1.89611434 0.14213297 3.79188394 0.28886907 5.6875 0.4375 C6.74324219 0.51871094 7.79898438 0.59992188 8.88671875 0.68359375 C11.65086297 0.96451681 14.28945741 1.40156852 17 2 C17 2.66 17 3.32 17 4 C12.84526559 7.11605081 12.84526559 7.11605081 10.09375 6.73828125 C7.7491903 5.9115615 5.84569113 4.83503287 3.75 3.5 C3.04359375 3.0565625 2.3371875 2.613125 1.609375 2.15625 C1.07828125 1.7746875 0.5471875 1.393125 0 1 C0 0.67 0 0.34 0 0 Z " fill="#AB7546" transform="translate(102,150)"/>
<path d="M0 0 C2.08144267 2.08144267 2.57368138 3.19289793 3.5078125 5.9140625 C3.77207031 6.67460938 4.03632812 7.43515625 4.30859375 8.21875 C4.57800781 9.0128125 4.84742187 9.806875 5.125 10.625 C5.40214844 11.42679688 5.67929688 12.22859375 5.96484375 13.0546875 C6.64841148 15.03467679 7.32488427 17.01711292 8 19 C4.18994141 18.25048828 4.18994141 18.25048828 2.48046875 15.99609375 C-0.51961857 10.05936506 -1.5684262 6.51500114 0 0 Z " fill="#FEFDF5" transform="translate(117,78)"/>
<path d="M0 0 C0.66 0.33 1.32 0.66 2 1 C0.37561031 2.79222332 -1.24948446 4.5837983 -2.875 6.375 C-3.33519531 6.88289062 -3.79539063 7.39078125 -4.26953125 7.9140625 C-6.14601858 9.98091811 -8.02570548 12.02570548 -10 14 C-10.05399736 12.54207116 -10.09279177 11.08357288 -10.125 9.625 C-10.15980469 8.40683594 -10.15980469 8.40683594 -10.1953125 7.1640625 C-10 5 -10 5 -8 3 C-5.67451993 2.30643577 -3.34119555 1.63850788 -1 1 C-0.67 0.67 -0.34 0.34 0 0 Z " fill="#501016" transform="translate(197,148)"/>
<path d="M0 0 C5.5952381 0.5952381 5.5952381 0.5952381 8 3 C7.625 5.125 7.625 5.125 7 7 C3.625 7.125 3.625 7.125 0 7 C-0.66 6.34 -1.32 5.68 -2 5 C-1.46428571 1.46428571 -1.46428571 1.46428571 0 0 Z " fill="#DED1D1" transform="translate(126,20)"/>
<path d="M0 0 C0.66 0 1.32 0 2 0 C2.33 1.98 2.66 3.96 3 6 C3.66 5.01 4.32 4.02 5 3 C5.66 3 6.32 3 7 3 C5.87548273 5.9719385 4.77706209 8.33440687 3 11 C2.01 10.67 1.02 10.34 0 10 C-0.6875 7.9375 -0.6875 7.9375 -1 6 C-1.33 6.66 -1.66 7.32 -2 8 C-2.66 8 -3.32 8 -4 8 C-3.40312566 4.65750371 -2.26396123 2.53563658 0 0 Z " fill="#E3D8D7" transform="translate(48,178)"/>
<path d="M0 0 C0.78375 0.804375 1.5675 1.60875 2.375 2.4375 C4.71982856 4.98690417 4.71982856 4.98690417 7 6 C7 4.68 7 3.36 7 2 C8.65 2.33 10.3 2.66 12 3 C12.625 4.875 12.625 4.875 13 7 C11 9 11 9 8.1875 9.5 C4.75913622 8.96221745 4.28502668 8.66753063 2.125 6.1875 C0 3 0 3 0 0 Z " fill="#E4D8D8" transform="translate(44,141)"/>
<path d="M0 0 C0.66 0.33 1.32 0.66 2 1 C2.625 3.5625 2.625 3.5625 3 6 C3.33 5.34 3.66 4.68 4 4 C4.66 4 5.32 4 6 4 C5.45773019 7.79588866 3.79872437 9.47211993 1 12 C0.34 9.69 -0.32 7.38 -1 5 C-1.99 5.99 -2.98 6.98 -4 8 C-4 4.09161134 -2.49432124 2.88405893 0 0 Z " fill="#F0EAEA" transform="translate(39,171)"/>
<path d="M0 0 C2 0.66666667 4 1.33333333 6 2 C4.52307692 6.67692308 4.52307692 6.67692308 1.875 8.3125 C0.946875 8.6528125 0.946875 8.6528125 0 9 C0 8.34 0 7.68 0 7 C-0.99 6.67 -1.98 6.34 -3 6 C-1.125 1.125 -1.125 1.125 0 0 Z " fill="#C3A6A7" transform="translate(50,47)"/>
<path d="M0 0 C2.31 0.33 4.62 0.66 7 1 C7 1.33 7 1.66 7 2 C5.35 2 3.7 2 2 2 C2 2.66 2 3.32 2 4 C3.65 4 5.3 4 7 4 C7 4.66 7 5.32 7 6 C5.35 6 3.7 6 2 6 C2 6.66 2 7.32 2 8 C3.65 8 5.3 8 7 8 C7 8.66 7 9.32 7 10 C1.25 10.125 1.25 10.125 -1 9 C-0.67 6.03 -0.34 3.06 0 0 Z " fill="#E5DADA" transform="translate(95,196)"/>
<path d="M0 0 C1.9375 0.75 1.9375 0.75 4 2 C4.75 4.125 4.75 4.125 5 6 C5.66 6 6.32 6 7 6 C7 6.66 7 7.32 7 8 C5.68 8.33 4.36 8.66 3 9 C3 10.65 3 12.3 3 14 C2.01 13.67 1.02 13.34 0 13 C0 8.66666667 0 4.33333333 0 0 Z " fill="#D4C2C2" transform="translate(38,108)"/>
<path d="M0 0 C4 2 4 2 5 4 C5.33 2.68 5.66 1.36 6 0 C6.66 0 7.32 0 8 0 C8 2.64 8 5.28 8 8 C6.0625 7.625 6.0625 7.625 4 7 C3.67 6.34 3.34 5.68 3 5 C2.67 6.32 2.34 7.64 2 9 C1.34 9 0.68 9 0 9 C0 6.03 0 3.06 0 0 Z " fill="#E9E0E0" transform="translate(121,197)"/>
<path d="M0 0 C0 1.33333333 0 2.66666667 0 4 C0.99 3.67 1.98 3.34 3 3 C3 5 3 5 1.5 6.625 C1.005 7.07875 0.51 7.5325 0 8 C1.98 7.34 3.96 6.68 6 6 C4.35 7.65 2.7 9.3 1 11 C-1.99324263 9.9024777 -2.84610901 9.32317108 -4.25 6.375 C-4.4975 5.59125 -4.745 4.8075 -5 4 C-3.35 2.68 -1.7 1.36 0 0 Z " fill="#E8DFDF" transform="translate(180,174)"/>
<path d="M0 0 C0.33 1.65 0.66 3.3 1 5 C-1.97 4.505 -1.97 4.505 -5 4 C-5 4.99 -5 5.98 -5 7 C-5.66 7 -6.32 7 -7 7 C-7.66 5.02 -8.32 3.04 -9 1 C-5.64919071 -1.10976881 -3.77897651 -1.0497157 0 0 Z " fill="#E8E0DF" transform="translate(92,23)"/>
<path d="M0 0 C1.8125 0.0625 1.8125 0.0625 4 1 C5.75 4.5625 5.75 4.5625 7 8 C6.01 8 5.02 8 4 8 C4 7.34 4 6.68 4 6 C1.69 6.66 -0.62 7.32 -3 8 C-1.125 2.25 -1.125 2.25 0 0 Z " fill="#E0D3D3" transform="translate(112,198)"/>
<path d="M0 0 C3 1.375 3 1.375 6 4 C6.5412406 7.3854069 6.35042185 10.59961015 6 14 C5.34 14 4.68 14 4 14 C3.32968281 12.0429132 2.66385317 10.08428887 2 8.125 C1.62875 7.03445312 1.2575 5.94390625 0.875 4.8203125 C0 2 0 2 0 0 Z " fill="#FBF8EE" transform="translate(122,82)"/>
<path d="M0 0 C1.66611905 -0.042721 3.33382885 -0.04063832 5 0 C6 1 6 1 6.11352539 3.04125977 C6.10828857 3.91580811 6.10305176 4.79035645 6.09765625 5.69140625 C6.09443359 6.63564453 6.09121094 7.57988281 6.08789062 8.55273438 C6.07951172 9.54595703 6.07113281 10.53917969 6.0625 11.5625 C6.05798828 12.55958984 6.05347656 13.55667969 6.04882812 14.58398438 C6.03700007 17.05604849 6.02051849 19.52799518 6 22 C5.67 22 5.34 22 5 22 C4.03794912 15.62641289 3.89344422 9.44070471 4 3 C3.34 3 2.68 3 2 3 C2 2.34 2 1.68 2 1 C1.34 0.67 0.68 0.34 0 0 Z " fill="#630105" transform="translate(154,54)"/>
<path d="M0 0 C0.33 3.3 0.66 6.6 1 10 C0.34 10 -0.32 10 -1 10 C-1.66 8.68 -2.32 7.36 -3 6 C-4.98 6.33 -6.96 6.66 -9 7 C-8.07347299 5.82460004 -7.13336613 4.65989423 -6.1875 3.5 C-5.66542969 2.8503125 -5.14335938 2.200625 -4.60546875 1.53125 C-3 0 -3 0 0 0 Z " fill="#E5DADA" transform="translate(82,193)"/>
<path d="M0 0 C0.66 1.32 1.32 2.64 2 4 C-1.96 4.66 -5.92 5.32 -10 6 C-10.66 5.01 -11.32 4.02 -12 3 C-8.04 2.01 -4.08 1.02 0 0 Z " fill="#721E1E" transform="translate(89,49)"/>
<path d="M0 0 C0.66 0.33 1.32 0.66 2 1 C1.01 1.66 0.02 2.32 -1 3 C0.32 3 1.64 3 3 3 C3 3.66 3 4.32 3 5 C1.68 5.33 0.36 5.66 -1 6 C-1 6.66 -1 7.32 -1 8 C0.98 7.34 2.96 6.68 5 6 C4.67 6.99 4.34 7.98 4 9 C2.02 9.33 0.04 9.66 -2 10 C-3.21676146 7.42332866 -4.05184833 5.62217997 -3.8125 2.75 C-3.544375 2.1725 -3.27625 1.595 -3 1 C-2.01 0.67 -1.02 0.34 0 0 Z " fill="#EAE3E2" transform="translate(151,190)"/>
<path d="M0 0 C1.32 0 2.64 0 4 0 C4 0.66 4 1.32 4 2 C2.68 2.33 1.36 2.66 0 3 C0.33 4.32 0.66 5.64 1 7 C1.66 7 2.32 7 3 7 C3.33 6.01 3.66 5.02 4 4 C4.99 4 5.98 4 7 4 C6.34 5.65 5.68 7.3 5 9 C2.125 9.125 2.125 9.125 -1 9 C-1.66 8.34 -2.32 7.68 -3 7 C-2.67028521 3.70285207 -2.3773161 2.3773161 0 0 Z " fill="#E1D5D5" transform="translate(169,181)"/>
<path d="M0 0 C2.475 0.495 2.475 0.495 5 1 C6 4 6 4 5.00390625 6.26171875 C4.52824219 7.06222656 4.05257812 7.86273438 3.5625 8.6875 C3.08941406 9.49574219 2.61632812 10.30398437 2.12890625 11.13671875 C1.75636719 11.75160156 1.38382813 12.36648437 1 13 C0.1276588 10.00519083 -0.10829766 7.36424089 -0.0625 4.25 C-0.05347656 3.45078125 -0.04445312 2.6515625 -0.03515625 1.828125 C-0.02355469 1.22484375 -0.01195312 0.6215625 0 0 Z " fill="#7D5B4C" transform="translate(141,117)"/>
<path d="M0 0 C3 1 3 1 5 3 C5.99 3 6.98 3 8 3 C7.34 4.65 6.68 6.3 6 8 C5.01 8 4.02 8 3 8 C2.34 7.01 1.68 6.02 1 5 C0.67 5.66 0.34 6.32 0 7 C-0.66 7 -1.32 7 -2 7 C-1.34 4.69 -0.68 2.38 0 0 Z " fill="#E0D3D3" transform="translate(136,22)"/>
<path d="M0 0 C1.65 0.33 3.3 0.66 5 1 C5 2.32 5 3.64 5 5 C4.34 5.66 3.68 6.32 3 7 C3.33 7.99 3.66 8.98 4 10 C2.35 9.67 0.7 9.34 -1 9 C-1 7.68 -1 6.36 -1 5 C0.32 4.67 1.64 4.34 3 4 C3 3.34 3 2.68 3 2 C2.01 2 1.02 2 0 2 C0 1.34 0 0.68 0 0 Z " fill="#ECE5E4" transform="translate(40,64)"/>
<path d="M0 0 C0.66 0 1.32 0 2 0 C2.33 1.98 2.66 3.96 3 6 C1.35 5.67 -0.3 5.34 -2 5 C-2.33 5.66 -2.66 6.32 -3 7 C-3.66 7 -4.32 7 -5 7 C-5.33 5.02 -5.66 3.04 -6 1 C-3.525 1.495 -3.525 1.495 -1 2 C-0.67 1.34 -0.34 0.68 0 0 Z " fill="#E3D9D9" transform="translate(99,20)"/>
<path d="M0 0 C1.65 0.33 3.3 0.66 5 1 C5.80967438 3.91482778 6.21845993 5.46113217 5.0625 8.3125 C4.5365625 9.1478125 4.5365625 9.1478125 4 10 C1.03 9.505 1.03 9.505 -2 9 C-2 8.34 -2 7.68 -2 7 C-0.02 7 1.96 7 4 7 C4 5.68 4 4.36 4 3 C2.68 2.67 1.36 2.34 0 2 C0 1.34 0 0.68 0 0 Z " fill="#E4D9D9" transform="translate(37,75)"/>
<path d="M0 0 C0.33 0 0.66 0 1 0 C1 1.65 1 3.3 1 5 C2.32 5.33 3.64 5.66 5 6 C5 6.66 5 7.32 5 8 C3.35 7.67 1.7 7.34 0 7 C0 7.99 0 8.98 0 10 C-0.66 10 -1.32 10 -2 10 C-2.12375 9.195625 -2.2475 8.39125 -2.375 7.5625 C-2.684375 6.2940625 -2.684375 6.2940625 -3 5 C-3.66 4.67 -4.32 4.34 -5 4 C-5 3.34 -5 2.68 -5 2 C-2.525 2.495 -2.525 2.495 0 3 C0 2.01 0 1.02 0 0 Z " fill="#EBE3E3" transform="translate(161,186)"/>
<path d="M0 0 C0.66 0.33 1.32 0.66 2 1 C3 4 3 4 3 6 C3.33 6.66 3.66 7.32 4 8 C3.67 8.66 3.34 9.32 3 10 C1.02 9.34 -0.96 8.68 -3 8 C-1.125 2.25 -1.125 2.25 0 0 Z " fill="#D6C4C4" transform="translate(45,54)"/>
<path d="M0 0 C0.99 0 1.98 0 3 0 C3.33 2.31 3.66 4.62 4 7 C2.125 7.625 2.125 7.625 0 8 C-0.66 7.34 -1.32 6.68 -2 6 C-1.44444444 1.44444444 -1.44444444 1.44444444 0 0 Z " fill="#D4C1C1" transform="translate(183,108)"/>
<path d="M0 0 C2.64 0.66 5.28 1.32 8 2 C8 3.32 8 4.64 8 6 C3.91621717 5.25749403 -0.01939223 4.17076699 -4 3 C-2.68 2.67 -1.36 2.34 0 2 C0 1.34 0 0.68 0 0 Z " fill="#F4F0EA" transform="translate(126,76)"/>
<path d="M0 0 C0.66 0.66 1.32 1.32 2 2 C1.625 4.125 1.625 4.125 1 6 C2.32 6 3.64 6 5 6 C5 6.66 5 7.32 5 8 C2 10 2 10 -1 10 C-1 8.35 -1 6.7 -1 5 C-1.99 5 -2.98 5 -4 5 C-2.25 1.125 -2.25 1.125 0 0 Z " fill="#E9E0E0" transform="translate(178,53)"/>
<path d="M0 0 C0.99 0.33 1.98 0.66 3 1 C2.67 1.33 2.34 1.66 2 2 C2.33 2.66 2.66 3.32 3 4 C2.67 4.33 2.34 4.66 2 5 C2.99 5.33 3.98 5.66 5 6 C2.8019253 7.33454536 1.47386397 8.02787435 -1.125 7.875 C-3.575137 6.73160273 -4.04432617 5.46882406 -5 3 C-2.6875 1.4375 -2.6875 1.4375 0 0 Z " fill="#DFD2D2" transform="translate(79,25)"/>
<path d="M0 0 C0.66 0 1.32 0 2 0 C2.33 1.98 2.66 3.96 3 6 C3.45375 5.34 3.9075 4.68 4.375 4 C4.91125 3.34 5.4475 2.68 6 2 C6.66 2 7.32 2 8 2 C6.79618552 4.49361571 5.54571278 6.68143083 4 9 C2.68 9 1.36 9 0 9 C0 6.03 0 3.06 0 0 Z " fill="#E5DCDC" transform="translate(67,189)"/>
<path d="M0 0 C1.32 0.66 2.64 1.32 4 2 C3.75 3.875 3.75 3.875 3 6 C0.50159405 7.87380446 -0.63319166 8.05001932 -3.75 7.625 C-4.4925 7.41875 -5.235 7.2125 -6 7 C-6 6.34 -6 5.68 -6 5 C-3.69 4.34 -1.38 3.68 1 3 C0.34 2.34 -0.32 1.68 -1 1 C-0.67 0.67 -0.34 0.34 0 0 Z " fill="#DED1D1" transform="translate(135,165)"/>
<path d="M0 0 C0 3 0 3 -1.96875 5.26171875 C-2.8040625 6.06222656 -3.639375 6.86273438 -4.5 7.6875 C-5.3353125 8.49574219 -6.170625 9.30398437 -7.03125 10.13671875 C-7.6809375 10.75160156 -8.330625 11.36648437 -9 12 C-9.66 11.67 -10.32 11.34 -11 11 C-9.52202738 7.32943063 -7.52384523 5.58914217 -4.375 3.25 C-3.55773437 2.63640625 -2.74046875 2.0228125 -1.8984375 1.390625 C-0.95871094 0.70226562 -0.95871094 0.70226562 0 0 Z " fill="#66060E" transform="translate(135,140)"/>
<path d="M0 0 C1.70840281 1.63412443 2.93453047 2.86906094 4 5 C4.598125 4.690625 5.19625 4.38125 5.8125 4.0625 C8 3 8 3 11 2 C11 2.99 11 3.98 11 5 C8.53882505 6.91424718 6.9827484 8.05615705 3.8125 7.875 C2 7 2 7 0 4 C0 2.68 0 1.36 0 0 Z " fill="#E9E1E0" transform="translate(43,130)"/>
<path d="M0 0 C0.86625 0.3403125 0.86625 0.3403125 1.75 0.6875 C1.75 2.9975 1.75 5.3075 1.75 7.6875 C1.09 7.6875 0.43 7.6875 -0.25 7.6875 C-0.25 6.6975 -0.25 5.7075 -0.25 4.6875 C-2.23 4.6875 -4.21 4.6875 -6.25 4.6875 C-6.25 4.0275 -6.25 3.3675 -6.25 2.6875 C-3.02697842 -0.42041367 -3.02697842 -0.42041367 0 0 Z " fill="#DDCFCF" transform="translate(149.25,27.3125)"/>
<path d="M0 0 C2.475 0.495 2.475 0.495 5 1 C5.3125 4.1875 5.3125 4.1875 5 8 C2.5 10.9375 2.5 10.9375 0 13 C0.99 9.7 1.98 6.4 3 3 C2.01 3 1.02 3 0 3 C0 2.01 0 1.02 0 0 Z " fill="#E7DEDE" transform="translate(175,135)"/>
<path d="M0 0 C2.31 0 4.62 0 7 0 C7 0.99 7 1.98 7 3 C5.35 3 3.7 3 2 3 C2 4.98 2 6.96 2 9 C1.34 9 0.68 9 0 9 C0 6.03 0 3.06 0 0 Z " fill="#D3C1C1" transform="translate(184,88)"/>
<path d="M0 0 C2.475 0.495 2.475 0.495 5 1 C5 1.99 5 2.98 5 4 C5.99 4.33 6.98 4.66 8 5 C7.01 5.66 6.02 6.32 5 7 C2.3125 6.125 2.3125 6.125 0 5 C0 3.35 0 1.7 0 0 Z " fill="#884447" transform="translate(170,48)"/>
<path d="M0 0 C4.455 1.98 4.455 1.98 9 4 C8.67 5.32 8.34 6.64 8 8 C5.03 6.35 2.06 4.7 -1 3 C-0.67 2.01 -0.34 1.02 0 0 Z " fill="#6E181A" transform="translate(115,40)"/>
<path d="M0 0 C0.99 0 1.98 0 3 0 C3.99 1.98 4.98 3.96 6 6 C5.071875 5.979375 4.14375 5.95875 3.1875 5.9375 C-0.02286011 5.84230396 -0.02286011 5.84230396 -3 7 C-1.125 1.125 -1.125 1.125 0 0 Z " fill="#E0D2D2" transform="translate(106,19)"/>
<path d="M0 0 C1.32 0.99 2.64 1.98 4 3 C3.34 3 2.68 3 2 3 C1.34 4.32 0.68 5.64 0 7 C-3.3125 7.1875 -3.3125 7.1875 -7 7 C-7.99 6.01 -8.98 5.02 -10 4 C-6.7 4.33 -3.4 4.66 0 5 C-0.33 3.68 -0.66 2.36 -1 1 C-0.67 0.67 -0.34 0.34 0 0 Z " fill="#E8DFDF" transform="translate(94,169)"/>
<path d="M0 0 C1.32 0.66 2.64 1.32 4 2 C3.8125 3.875 3.8125 3.875 3 6 C0.4375 7.25 0.4375 7.25 -2 8 C-2.20086443 4.28400809 -2.1519437 3.22791555 0 0 Z " fill="#D0BBBB" transform="translate(151,156)"/>
<path d="M0 0 C1.98 1.65 3.96 3.3 6 5 C5.01 5.99 4.02 6.98 3 8 C1.0625 7.25 1.0625 7.25 -1 6 C-1.75 3.875 -1.75 3.875 -2 2 C-1.34 2 -0.68 2 0 2 C0 1.34 0 0.68 0 0 Z " fill="#AB8182" transform="translate(58,38)"/>
<path d="M0 0 C3.875 0.875 3.875 0.875 5 2 C5.1875 4.4375 5.1875 4.4375 5 7 C3 9 3 9 0.375 9.125 C-0.40875 9.08375 -1.1925 9.0425 -2 9 C-1.67 7.68 -1.34 6.36 -1 5 C-1 5.66 -1 6.32 -1 7 C0.32 7 1.64 7 3 7 C2.65772428 4.02934491 2.65772428 4.02934491 2 1 C1.34 0.67 0.68 0.34 0 0 Z " fill="#EEE7E7" transform="translate(135,195)"/>
<path d="M0 0 C2.49361571 1.20381448 4.68143083 2.45428722 7 4 C8.32 3.34 9.64 2.68 11 2 C11 2.66 11 3.32 11 4 C9.03852126 5.38938077 7.03833424 6.7260411 5 8 C0 2.25 0 2.25 0 0 Z " fill="#E9E0E0" transform="translate(183,171)"/>
<path d="M0 0 C2.97 0.99 5.94 1.98 9 3 C9 3.99 9 4.98 9 6 C4.545 5.01 4.545 5.01 0 4 C0 2.68 0 1.36 0 0 Z " fill="#EDE1C1" transform="translate(130,68)"/>
<path d="M0 0 C2.31 0 4.62 0 7 0 C7.33 0.66 7.66 1.32 8 2 C7.01 2 6.02 2 5 2 C4.67 4.31 4.34 6.62 4 9 C3.34 9 2.68 9 2 9 C2.33 6.36 2.66 3.72 3 1 C2.01 0.67 1.02 0.34 0 0 Z " fill="#E9E0E0" transform="translate(85,195)"/>
<path d="M0 0 C2.0625 0.6875 2.0625 0.6875 4 2 C4.75 4.125 4.75 4.125 5 6 C2.625 5.75 2.625 5.75 0 5 C-1.3125 2.9375 -1.3125 2.9375 -2 1 C-1.34 0.67 -0.68 0.34 0 0 Z " fill="#6C1417" transform="translate(135,65)"/>
<path d="M0 0 C1.32 0 2.64 0 4 0 C4 1.65 4 3.3 4 5 C2.68 5 1.36 5 0 5 C-0.5625 3.0625 -0.5625 3.0625 -1 1 C-0.67 0.67 -0.34 0.34 0 0 Z " fill="#6F1B1F" transform="translate(169,183)"/>
<path d="M0 0 C0.99 0.33 1.98 0.66 3 1 C2.75 3.375 2.75 3.375 2 6 C-0.0625 7.3125 -0.0625 7.3125 -2 8 C-2.33 7.01 -2.66 6.02 -3 5 C-2.01 4.67 -1.02 4.34 0 4 C-0.33 3.34 -0.66 2.68 -1 2 C-0.67 1.34 -0.34 0.68 0 0 Z " fill="#E0D4D4" transform="translate(167,145)"/>
<path d="M0 0 C0.99 0 1.98 0 3 0 C2.67 3.3 2.34 6.6 2 10 C1.34 10 0.68 10 0 10 C0 6.7 0 3.4 0 0 Z " fill="#FEFEFC" transform="translate(130,86)"/>
<path d="M0 0 C0.99 0.33 1.98 0.66 3 1 C3 1.66 3 2.32 3 3 C3.66 3 4.32 3 5 3 C5 4.98 5 6.96 5 9 C4.67 8.34 4.34 7.68 4 7 C1.97536745 6.34786708 1.97536745 6.34786708 0 6 C0 4.02 0 2.04 0 0 Z " fill="#7C3235" transform="translate(162,185)"/>
<path d="M0 0 C0.99 0.33 1.98 0.66 3 1 C3 2.98 3 4.96 3 7 C2.01 7 1.02 7 0 7 C-0.38133299 5.0085944 -0.71325582 3.00720923 -1 1 C-0.67 0.67 -0.34 0.34 0 0 Z " fill="#702124" transform="translate(185,77)"/>
<path d="M0 0 C2.475 0.495 2.475 0.495 5 1 C5 2.98 5 4.96 5 7 C2.5 5.1875 2.5 5.1875 0 3 C0 2.01 0 1.02 0 0 Z " fill="#FDFCFB" transform="translate(92,70)"/>
<path d="M0 0 C0.99 0.33 1.98 0.66 3 1 C3.33 3.31 3.66 5.62 4 8 C2.35 7.67 0.7 7.34 -1 7 C-1.33 5.68 -1.66 4.36 -2 3 C-0.515 3.99 -0.515 3.99 1 5 C0.67 3.35 0.34 1.7 0 0 Z " fill="#E9E1E1" transform="translate(164,38)"/>
<path d="M0 0 C1.32 0 2.64 0 4 0 C4 1.65 4 3.3 4 5 C2.35 4.67 0.7 4.34 -1 4 C-0.67 2.68 -0.34 1.36 0 0 Z " fill="#660C0F" transform="translate(58,187)"/>
<path d="M0 0 C0.66 0.66 1.32 1.32 2 2 C2.33 1.34 2.66 0.68 3 0 C3.66 0 4.32 0 5 0 C4.45773019 3.79588866 2.79872437 5.47211993 0 8 C0 5.33333333 0 2.66666667 0 0 Z " fill="#E5DADA" transform="translate(40,175)"/>
<path d="M0 0 C0.66 0 1.32 0 2 0 C0.52307692 6.64615385 0.52307692 6.64615385 -2.125 8.4375 C-2.74375 8.623125 -3.3625 8.80875 -4 9 C-2.94124926 5.59687262 -1.99097846 2.98646769 0 0 Z " fill="#DFD3D2" transform="translate(77,157)"/>
<path d="M0 0 C0 1.65 0 3.3 0 5 C-2.97 4.505 -2.97 4.505 -6 4 C-5.67 3.01 -5.34 2.02 -5 1 C-3 0 -3 0 0 0 Z " fill="#896651" transform="translate(116,115)"/>
<path d="M0 0 C0.33 1.32 0.66 2.64 1 4 C-0.8125 5.0625 -0.8125 5.0625 -3 6 C-3.99 5.67 -4.98 5.34 -6 5 C-4.68 4.67 -3.36 4.34 -2 4 C-2.99 4 -3.98 4 -5 4 C-5.66 3.67 -6.32 3.34 -7 3 C-2.25 0 -2.25 0 0 0 Z " fill="#6F2224" transform="translate(84,25)"/>
<path d="M0 0 C2 2 2 2 2.125 5.625 C2.08375 6.73875 2.0425 7.8525 2 9 C1.34 9 0.68 9 0 9 C-1.36623674 6.26752652 -1.128426 4.01801098 -1 1 C-0.67 0.67 -0.34 0.34 0 0 Z " fill="#66070C" transform="translate(130,196)"/>
<path d="M0 0 C1.98 1.65 3.96 3.3 6 5 C5.67 5.99 5.34 6.98 5 8 C2.5 6.25 2.5 6.25 0 4 C0 2.68 0 1.36 0 0 Z " fill="#701B1E" transform="translate(91,140)"/>
<path d="M0 0 C0.99 0 1.98 0 3 0 C2.91291331 1.45945288 2.80473093 2.91765868 2.6875 4.375 C2.62949219 5.18710938 2.57148438 5.99921875 2.51171875 6.8359375 C2 9 2 9 -1 11 C-1 7.13304322 0.41909971 4.4911548 2 1 C1.34 0.67 0.68 0.34 0 0 Z " fill="#F2EDED" transform="translate(180,122)"/>
<path d="M0 0 C0.99 0.33 1.98 0.66 3 1 C1.515 4.465 1.515 4.465 0 8 C-0.66 8 -1.32 8 -2 8 C-1.125 1.125 -1.125 1.125 0 0 Z " fill="#690C12" transform="translate(151,110)"/>
<path d="M0 0 C0 0.99 0 1.98 0 3 C-2.64 3 -5.28 3 -8 3 C-8 2.34 -8 1.68 -8 1 C-5.07175348 0.02391783 -3.04386724 -0.08226668 0 0 Z " fill="#FEFDF6" transform="translate(152,104)"/>
<path d="M0 0 C0 0.66 0 1.32 0 2 C-2.31 2.33 -4.62 2.66 -7 3 C-7.33 2.01 -7.66 1.02 -8 0 C-4.71023192 -1.09658936 -3.28696233 -0.79953138 0 0 Z " fill="#BB9C9D" transform="translate(92,23)"/>
<path d="M0 0 C1.85776765 3.13498292 2.20140476 5.37471432 2 9 C1.01 8.67 0.02 8.34 -1 8 C-1.6875 5.9375 -1.6875 5.9375 -2 4 C-1.34 4 -0.68 4 0 4 C0 2.68 0 1.36 0 0 Z " fill="#64040A" transform="translate(119,197)"/>
<path d="M0 0 C0.99 0.33 1.98 0.66 3 1 C1.38405168 3.04119788 -0.2856382 5.04072937 -2 7 C-2.66 7 -3.32 7 -4 7 C-2.79618552 4.50638429 -1.54571278 2.31856917 0 0 Z " fill="#E4DADA" transform="translate(34,168)"/>
<path d="M0 0 C2.31 1.98 4.62 3.96 7 6 C5.68 6.33 4.36 6.66 3 7 C0.75 5.0625 0.75 5.0625 -1 3 C-0.67 2.01 -0.34 1.02 0 0 Z " fill="#EBE4E4" transform="translate(57,150)"/>
<path d="M0 0 C0.99 0.33 1.98 0.66 3 1 C4.17755913 3.94389782 4.03348696 4.89953913 3 8 C2.34 8 1.68 8 1 8 C0.67 5.36 0.34 2.72 0 0 Z " fill="#B28B8D" transform="translate(45,108)"/>
<path d="M0 0 C3.3 0.33 6.6 0.66 10 1 C9.34 1.66 8.68 2.32 8 3 C5.8359375 2.9765625 5.8359375 2.9765625 3.375 2.625 C2.55773437 2.51414062 1.74046875 2.40328125 0.8984375 2.2890625 C0.27195312 2.19367188 -0.35453125 2.09828125 -1 2 C-0.67 1.34 -0.34 0.68 0 0 Z " fill="#FCEC9D" transform="translate(105,104)"/>
<path d="M0 0 C0.33 0.66 0.66 1.32 1 2 C0.01 3.485 0.01 3.485 -1 5 C-2.9453125 5.29296875 -2.9453125 5.29296875 -5.125 5.1875 C-6.40375 5.125625 -7.6825 5.06375 -9 5 C-6.14693203 2.67527795 -3.45925163 1.2491742 0 0 Z " fill="#F1DD91" transform="translate(153,100)"/>
<path d="M0 0 C0.99 0.33 1.98 0.66 3 1 C2.34 2.32 1.68 3.64 1 5 C1.99 5.99 2.98 6.98 4 8 C1.525 7.01 1.525 7.01 -1 6 C-1 2 -1 2 0 0 Z " fill="#E3D8D8" transform="translate(154,31)"/>
<path d="M0 0 C0.66 0.33 1.32 0.66 2 1 C2 1.99 2 2.98 2 4 C2.33 4.99 2.66 5.98 3 7 C2.01 7 1.02 7 0 7 C-0.33 6.34 -0.66 5.68 -1 5 C-1.99 4.34 -2.98 3.68 -4 3 C-2.68 2.01 -1.36 1.02 0 0 Z " fill="#E5DBDB" transform="translate(71,29)"/>
<path d="M0 0 C1.32 0.33 2.64 0.66 4 1 C4 2.32 4 3.64 4 5 C2.68 5 1.36 5 0 5 C0 3.35 0 1.7 0 0 Z " fill="#671013" transform="translate(134,197)"/>
<path d="M0 0 C0.99 0 1.98 0 3 0 C3 0.66 3 1.32 3 2 C4.65 2 6.3 2 8 2 C8 2.66 8 3.32 8 4 C2.25 4.125 2.25 4.125 0 3 C0 2.01 0 1.02 0 0 Z " fill="#D2BFBF" transform="translate(94,202)"/>
<path d="M0 0 C0.33 0 0.66 0 1 0 C1 2.31 1 4.62 1 7 C-1.97 6.505 -1.97 6.505 -5 6 C-3.35830472 3.97945196 -1.69088222 1.97956942 0 0 Z " fill="#782C30" transform="translate(154,188)"/>
<path d="M0 0 C0.66 1.32 1.32 2.64 2 4 C0.68 5.32 -0.64 6.64 -2 8 C-2.6875 6.25 -2.6875 6.25 -3 4 C-1.5625 1.75 -1.5625 1.75 0 0 Z " fill="#66080D" transform="translate(46,175)"/>
<path d="M0 0 C2.31 0.33 4.62 0.66 7 1 C6.67 1.66 6.34 2.32 6 3 C3.69 3 1.38 3 -1 3 C-0.67 2.01 -0.34 1.02 0 0 Z " fill="#BEA1A1" transform="translate(120,174)"/>
<path d="M0 0 C1.32 0.33 2.64 0.66 4 1 C4 2.32 4 3.64 4 5 C2.68 4.67 1.36 4.34 0 4 C0 2.68 0 1.36 0 0 Z " fill="#64070A" transform="translate(181,66)"/>
<path d="M0 0 C1.32 1.32 2.64 2.64 4 4 C3.34 5.32 2.68 6.64 2 8 C-0.1519437 4.77208445 -0.20086443 3.71599191 0 0 Z " fill="#F4DD86" transform="translate(101,63)"/>
<path d="M0 0 C2.475 0.495 2.475 0.495 5 1 C4.67 1.99 4.34 2.98 4 4 C2.68 4 1.36 4 0 4 C0 2.68 0 1.36 0 0 Z " fill="#6E1A1E" transform="translate(127,22)"/>
<path d="M0 0 C0.99 0 1.98 0 3 0 C2.49396008 2.16874252 2.00016187 3.99967627 1 6 C0.01 5.67 -0.98 5.34 -2 5 C-1.34 3.35 -0.68 1.7 0 0 Z " fill="#DCCECE" transform="translate(71,153)"/>
<path d="M0 0 C1.98 1.65 3.96 3.3 6 5 C5.34 5.66 4.68 6.32 4 7 C2.35 5.02 0.7 3.04 -1 1 C-0.67 0.67 -0.34 0.34 0 0 Z " fill="#64030C" transform="translate(97,146)"/>
<path d="M0 0 C0 0.99 0 1.98 0 3 C-2.375 4.75 -2.375 4.75 -5 6 C-5.66 5.67 -6.32 5.34 -7 5 C-2.25 0 -2.25 0 0 0 Z " fill="#F1ECEC" transform="translate(54,132)"/>
<path d="M0 0 C1.98 0.99 1.98 0.99 4 2 C4 3.98 4 5.96 4 8 C1.44971017 6.72485508 1.06918289 5.59658703 0 3 C0 2.01 0 1.02 0 0 Z " fill="#C5AEAE" transform="translate(37,125)"/>
<path d="M0 0 C2.97 0.495 2.97 0.495 6 1 C4.375 2.5625 4.375 2.5625 2 4 C-1.25 3.6875 -1.25 3.6875 -4 3 C-2.68 2.67 -1.36 2.34 0 2 C0 1.34 0 0.68 0 0 Z " fill="#DEC89C" transform="translate(126,76)"/>
<path d="M0 0 C1.65 0 3.3 0 5 0 C5 0.66 5 1.32 5 2 C2 4 2 4 -1 4 C-0.67 2.68 -0.34 1.36 0 0 Z " fill="#E4D9D8" transform="translate(178,59)"/>
</svg>
